<svg xmlns="http://www.w3.org/2000/svg" width="20" height="20" viewBox="0 0 20 20">
    <g fill="none" fill-rule="evenodd" stroke-linecap="round" stroke-linejoin="round">
        <g stroke="#FFF" stroke-width="2">
            <g>
                <path d="M5.49 3.76l1.68-2.68C7.585.413 8.32.013 9.105.027 9.89.042 10.61.468 11 1.15l3.11 5.39M14.11 6.54L10.69 5.58M14.11 6.54L14.8 2.78M16.2 9.84l1.28 2.29c.387.691.379 1.536-.023 2.22-.4.683-1.135 1.102-1.927 1.1H8.79M8.79 15.46L11.67 13M8.79 15.46L11.58 17.97M5.44 15.45H2.73c-.79.012-1.526-.395-1.937-1.069-.41-.674-.435-1.515-.063-2.211l2.88-5.4M3.63 6.77L4.55 10.28M3.63 6.77L.31 7.89" transform="translate(1 1)"/>
            </g>
        </g>
    </g>
</svg>
