<svg xmlns="http://www.w3.org/2000/svg" width="20" height="20" viewBox="0 0 20 20">
    <g fill="none" fill-rule="evenodd" stroke-linecap="round" stroke-linejoin="round">
        <g stroke="#FFF" stroke-width="2">
            <g>
                <path d="M9.76 3.84L5.89 8.93 11.11 8.93M8.24 14.02L12.11 8.93 6.89 8.93M8.24 14.02L9.76 3.84" transform="translate(1 1)"/>
                <path d="M1.86 3.86c-2.547 3.498-2.17 8.33.89 11.39 3.06 3.06 7.892 3.437 11.39.89" transform="translate(1 1)"/>
                <g>
                    <path d="M13.278 13.943c.098-.135.191-.272.281-.413" transform="translate(1 1) translate(2.85 .2)"/>
                    <path stroke-dasharray="1.035 3.104" d="M14.742 10.675c.132-.602.201-1.228.201-1.87C14.943 3.943 11.003 0 6.138 0 4.952 0 3.822.237 2.79.665" transform="translate(1 1) translate(2.85 .2)"/>
                    <path d="M1.413 1.384c-.14.09-.278.184-.413.28" transform="translate(1 1) translate(2.85 .2)"/>
                </g>
                <path d="M4.27 1.58L3.86 1.86" transform="translate(1 1)"/>
            </g>
        </g>
    </g>
</svg>
