<svg xmlns="http://www.w3.org/2000/svg" width="20" height="20" viewBox="0 0 20 20">
    <g fill="none" fill-rule="evenodd" stroke-linecap="round" stroke-linejoin="round">
        <g stroke="#FFF" stroke-width="2">
            <g>
                <path d="M16.91 18H1.09c-.28.025-.559-.069-.766-.26-.208-.19-.325-.458-.324-.74V7.23c.007-.616.308-1.192.81-1.55L8.31.22c.394-.284.926-.284 1.32 0l7.5 5.46c.525.344.85.923.87 1.55V17c.001.282-.116.55-.324.74-.207.191-.486.285-.766.26zM13.99 10.86L12.23 8.53M12.23 13.19L13.99 10.86M4.01 10.86L5.78 13.19M5.78 8.53L4.01 10.86M12.68 10.86L5.32 10.86" transform="translate(1 1)"/>
            </g>
        </g>
    </g>
</svg>
