<svg xmlns="http://www.w3.org/2000/svg" width="20" height="20" viewBox="0 0 20 20">
    <g fill="none" fill-rule="evenodd">
        <g stroke="#FFF" stroke-width="2">
            <g>
                <path d="M1.09 9.5h6.08V14H1.09C.488 14 0 13.512 0 12.91v-2.32C0 9.988.488 9.5 1.09 9.5h0zM7.17 9.5h7.17v3.41c0 .602-.488 1.09-1.09 1.09H7.17V9.5zM1.09.5h6.08V5H1.09C.488 5 0 4.512 0 3.91V1.59C0 .988.488.5 1.09.5zM7.17.5h6.08c.602 0 1.09.488 1.09 1.09V5H7.17V.5zM3.59 5H10.76V9.5H3.59zM10.76 5h6.08c.602 0 1.09.488 1.09 1.09V8.4c0 .602-.488 1.09-1.09 1.09h-6.08V5z" transform="translate(1 3)"/>
            </g>
        </g>
    </g>
</svg>
