<svg xmlns="http://www.w3.org/2000/svg" width="12" height="12" viewBox="0 0 12 12">
    <g fill="none" fill-rule="evenodd">
        <g fill="#1B2668">
            <g>
                <path d="M8 .396c.308 0 .561.232.596.53l.004.07-.001.4H9.5c.835 0 1.52.639 1.593 1.454l.007.146v7c0 .884-.716 1.6-1.6 1.6h-7c-.884 0-1.6-.716-1.6-1.6v-7c0-.884.716-1.6 1.6-1.6h.9v-.4c0-.331.269-.6.6-.6.308 0 .561.232.596.53l.004.07v.4h2.799l.001-.4c0-.331.269-.6.6-.6zm1.9 5.2H2.099l.001 4.4c0 .193.137.355.32.392l.08.008h7c.22 0 .4-.18.4-.4v-4.4zm-6.5-3h-.9c-.22 0-.4.18-.4.4l-.001 1.4H9.9v-1.4c0-.193-.137-.355-.32-.392l-.08-.008h-.901l.001.4c0 .331-.269.6-.6.6-.308 0-.561-.232-.596-.53l-.004-.07-.001-.4H4.6v.4c0 .331-.269.6-.6.6-.308 0-.561-.232-.596-.53l-.004-.07v-.4z" transform="translate(-270 -144) translate(270 144)"/>
            </g>
        </g>
    </g>
</svg>
