<svg xmlns="http://www.w3.org/2000/svg" width="12" height="12" viewBox="0 0 12 12">
    <g fill="none" fill-rule="evenodd">
        <g fill="#c5cae7">
            <g>
                <path d="M5.996.396c3.093 0 5.6 2.507 5.6 5.6 0 3.093-2.507 5.6-5.6 5.6-3.093 0-5.6-2.507-5.6-5.6 0-3.093 2.507-5.6 5.6-5.6zm0 1.2c-2.43 0-4.4 1.97-4.4 4.4 0 2.43 1.97 4.4 4.4 4.4 2.43 0 4.4-1.97 4.4-4.4 0-2.43-1.97-4.4-4.4-4.4zm0 .8c1.988 0 3.6 1.612 3.6 3.6s-1.612 3.6-3.6 3.6-3.6-1.612-3.6-3.6 1.612-3.6 3.6-3.6zm0 1.2c-1.325 0-2.4 1.075-2.4 2.4s1.075 2.4 2.4 2.4 2.4-1.075 2.4-2.4-1.075-2.4-2.4-2.4zm0 .8c.884 0 1.6.716 1.6 1.6 0 .884-.716 1.6-1.6 1.6-.884 0-1.6-.716-1.6-1.6 0-.884.716-1.6 1.6-1.6zm0 1.2c-.22 0-.4.18-.4.4 0 .22.18.4.4.4.22 0 .4-.18.4-.4 0-.22-.18-.4-.4-.4z" transform="translate(-416 -144) translate(416 144)"/>
            </g>
        </g>
    </g>
</svg>
