<svg xmlns="http://www.w3.org/2000/svg" width="17" height="16" viewBox="0 0 17 16">
    <g fill="none" fill-rule="evenodd">
        <g fill="#C5CAE7">
            <g>
                <g>
                    <path d="M8 2c.552 0 1 .448 1 1v4h4c.552 0 1 .448 1 1s-.448 1-1 1H8.999L9 13c0 .552-.448 1-1 1s-1-.448-1-1l-.001-4H3c-.552 0-1-.448-1-1s.448-1 1-1h4V3c0-.552.448-1 1-1z" transform="translate(-589 -710) translate(270 364) rotate(-90 341 21)"/>
                </g>
            </g>
        </g>
    </g>
</svg>
