<svg xmlns="http://www.w3.org/2000/svg" width="16" height="16" viewBox="0 0 16 16">
    <g fill="none" fill-rule="evenodd">
        <g fill="#7d88ca">
            <path d="M7.324 6.714L5.168 4.737c-.407-.373-.435-1.006-.062-1.413.19-.206.457-.324.738-.324h4.312c.553 0 1 .448 1 1 0 .28-.117.548-.324.737L8.676 6.714c-.383.35-.97.35-1.352 0z" transform="rotate(-180 8 5)"/>
            <path d="M7.324 12.714l-2.156-1.977c-.407-.373-.435-1.006-.062-1.413.19-.206.457-.324.738-.324h4.312c.553 0 1 .448 1 1 0 .28-.117.548-.324.737l-2.156 1.977c-.383.35-.97.35-1.352 0z"/>
        </g>
    </g>
</svg>
