<svg xmlns="http://www.w3.org/2000/svg" width="12" height="12" viewBox="0 0 12 12">
    <g fill="none" fill-rule="evenodd">
        <g fill="#7d88ca">
            <g>
                <g>
                    <g>
                        <path d="M6 .6c2.485 0 4.5 2.015 4.5 4.5 0 1.513-.8 2.98-2.114 4.367-.448.472-.925.902-1.403 1.282l-.204.16-.178.134-.15.108-.118.082c-.202.134-.464.134-.666 0l-.118-.082-.15-.108-.178-.134-.204-.16c-.478-.38-.955-.81-1.403-1.282C2.3 8.08 1.5 6.613 1.5 5.1 1.5 2.615 3.515.6 6 .6zm0 1.2c-1.823 0-3.3 1.477-3.3 3.3 0 1.142.662 2.356 1.786 3.542.405.428.842.82 1.278 1.168.077.061.15.118.22.171L6 9.993l.236-.183c.436-.347.873-.74 1.278-1.168C8.638 7.456 9.3 6.242 9.3 5.1c0-1.823-1.477-3.3-3.3-3.3zm0 1.4c1.05 0 1.9.85 1.9 1.9C7.9 6.15 7.05 7 6 7c-1.05 0-1.9-.85-1.9-1.9 0-1.05.85-1.9 1.9-1.9zm0 1.2c-.387 0-.7.313-.7.7 0 .387.313.7.7.7.387 0 .7-.313.7-.7 0-.387-.313-.7-.7-.7z" transform="translate(-288 -586) translate(248 535) translate(40 47) translate(0 4)"/>
                    </g>
                </g>
            </g>
        </g>
    </g>
</svg>
