<svg xmlns="http://www.w3.org/2000/svg" width="10" height="10" viewBox="0 0 10 10">
    <g fill="none" fill-rule="evenodd">
        <g fill="#7D88CA">
            <g>
                <path d="M4.79.503c-.735.044-1.318.654-1.318 1.4v3.821l-.03.026c-.598.546-.84 1.395-.6 2.187.271.896 1.097 1.508 2.033 1.508.936 0 1.762-.612 2.034-1.508l.028-.104c.19-.762-.057-1.561-.63-2.083l-.03-.026V1.903C6.278 1.128 5.65.5 4.876.5L4.79.503zm.085.997c.222 0 .403.18.403.403v4.066c0 .146.064.284.173.378l.049.038c.412.275.595.787.452 1.262-.144.474-.581.798-1.077.798s-.933-.324-1.077-.798c-.135-.447.02-.927.382-1.211l.07-.051c.139-.093.222-.25.222-.416V1.903c0-.223.18-.403.403-.403z" transform="translate(-974 -926) translate(974 926)"/>
            </g>
        </g>
    </g>
</svg>
