<svg xmlns="http://www.w3.org/2000/svg" width="20" height="20" viewBox="0 0 20 20">
    <g fill="none" fill-rule="evenodd">
        <g fill="#FF6B6B">
            <g>
                <g>
                    <path d="M11.667 1.1c1.416 0 2.574 1.104 2.661 2.498l.005.169v.666H17.5c.552 0 1 .448 1 1 0 .513-.386.936-.883.994l-.117.006h-.667V16.1c0 1.416-1.104 2.574-2.498 2.661l-.168.006H5.833c-1.416 0-2.574-1.104-2.661-2.498l-.005-.169-.001-9.667H2.5c-.552 0-1-.447-1-1 0-.513.386-.935.883-.993l.117-.007h3.166v-.666c0-1.416 1.105-2.575 2.499-2.662l.168-.005h3.334zm3.166 5.333H5.166V16.1c0 .335.247.612.569.66l.098.007h8.334c.334 0 .611-.247.66-.568l.006-.099V6.433zM8.333 8.6c.513 0 .936.386.994.883l.006.117v4c0 .552-.447 1-1 1-.513 0-.935-.386-.993-.883l-.007-.117v-4c0-.552.448-1 1-1zm3.334 0c.513 0 .935.386.993.883l.007.117v4c0 .552-.448 1-1 1-.513 0-.936-.386-.994-.883l-.006-.117v-4c0-.552.447-1 1-1zm0-5.5H8.333c-.334 0-.611.247-.66.568l-.006.099-.001.666h4.667v-.666c0-.335-.246-.612-.568-.66l-.098-.007z" transform="translate(-1158 -587) translate(1152 582) translate(6 5)"/>
                </g>
            </g>
        </g>
    </g>
</svg>
