<svg xmlns="http://www.w3.org/2000/svg" width="12" height="12" viewBox="0 0 12 12">
    <g fill="none" fill-rule="evenodd">
        <g fill="#7D88CA">
            <g>
                <path d="M8.748 6.898c1.022 0 1.85.828 1.85 1.85 0 1.022-.828 1.85-1.85 1.85-1.022 0-1.85-.828-1.85-1.85 0-1.022.828-1.85 1.85-1.85zm1.174-4.824c.217.216.233.556.05.792l-.05.056-7 7c-.234.235-.614.235-.848 0-.217-.216-.233-.556-.05-.792l.05-.056 7-7c.234-.235.614-.235.848 0zM8.748 8.098c-.359 0-.65.291-.65.65 0 .359.291.65.65.65.359 0 .65-.291.65-.65 0-.359-.291-.65-.65-.65zm-5.5-6.7c1.022 0 1.85.828 1.85 1.85 0 1.022-.828 1.85-1.85 1.85-1.022 0-1.85-.828-1.85-1.85 0-1.022.828-1.85 1.85-1.85zm0 1.2c-.359 0-.65.291-.65.65 0 .359.291.65.65.65.359 0 .65-.291.65-.65 0-.359-.291-.65-.65-.65z" transform="translate(-972 -996) translate(972 996)"/>
            </g>
        </g>
    </g>
</svg>
