<svg xmlns="http://www.w3.org/2000/svg" width="20" height="20" viewBox="0 0 20 20">
    <g fill="none" fill-rule="evenodd">
        <g fill="#7D88CA">
            <g>
                <g>
                    <path d="M10 1c4.692 0 8.5 1.27 8.5 3.5v10.667c0 2.234-3.79 3.5-8.5 3.5-4.608 0-8.335-1.211-8.495-3.356l-.005-.144V4.5l.005-.144C1.666 2.215 5.41 1 10 1zm.306 12.398L10 13.4c-2.614 0-4.944-.39-6.5-1.118v2.885c0 .163.27.367.747.571l.281.111c.3.11.66.22 1.067.32l.424.096c.146.031.297.061.453.09l.482.081c.906.14 1.942.23 3.046.23 1.104 0 2.14-.09 3.046-.23l.482-.081c.156-.029.307-.059.453-.09l.424-.097c.407-.1.766-.208 1.067-.319l.28-.11c.435-.186.697-.372.741-.527l.007-.045.001-2.886c-1.495.7-3.705 1.088-6.195 1.117zM16.5 6.877C14.941 7.608 12.607 8 10 8s-4.94-.392-6.5-1.123V9.9c0 .164.27.367.747.571l.281.111.32.11.356.107c.125.035.255.07.391.103l.424.097c.512.109 1.085.203 1.704.273l.541.054.562.04c.38.022.773.034 1.174.034.401 0 .794-.012 1.174-.034l.562-.04.54-.054c.62-.07 1.193-.164 1.705-.273l.424-.097c.136-.034.266-.068.39-.103l.357-.107.32-.11.28-.11c.478-.205.748-.408.748-.572zM10 3c-.699 0-1.371.037-2.002.1l-.53.06-.506.071c-.412.064-.798.139-1.15.22l-.41.1-.19.052-.358.107c-.114.036-.22.073-.321.11l-.282.11c-.48.205-.751.408-.751.57 0 .162.271.365.751.57l.282.11c.1.037.207.074.32.11l.358.107.192.052.408.1c.353.081.74.156 1.151.22l.507.071.53.06C8.628 5.963 9.3 6 10 6c.699 0 1.371-.037 2.002-.1l.53-.06.506-.071c.412-.064.798-.139 1.15-.22l.41-.1.19-.052.358-.107c.114-.036.22-.073.321-.11l.282-.11c.48-.205.751-.408.751-.57 0-.162-.271-.365-.751-.57l-.282-.11c-.1-.037-.207-.074-.32-.11l-.358-.107-.192-.052-.408-.1c-.353-.081-.74-.156-1.151-.22l-.507-.071-.53-.06C11.372 3.037 10.7 3 10 3z" transform="translate(-949 -727) translate(248 535) translate(701 192)"/>
                </g>
            </g>
        </g>
    </g>
</svg>
