<svg xmlns="http://www.w3.org/2000/svg" width="20" height="20" viewBox="0 0 20 20">
    <g fill="none" fill-rule="evenodd">
        <g fill="#7D88CA">
            <g>
                <g>
                    <path d="M15.833 1.5H4.167C2.694 1.5 1.5 2.694 1.5 4.167V17.5l.006.114c.087.814 1.099 1.196 1.701.593l3.04-3.041h9.586c1.473 0 2.667-1.193 2.667-2.666V4.167c0-1.473-1.194-2.667-2.667-2.667zm-11.666 2h11.666c.369 0 .667.298.667.667V12.5c0 .368-.298.667-.667.667h-10l-.131.008c-.217.03-.42.128-.576.285L3.5 15.085V4.167c0-.369.298-.667.667-.667z" transform="translate(-912 -727) translate(248 535) translate(664 192)"/>
                </g>
            </g>
        </g>
    </g>
</svg>
