<svg xmlns="http://www.w3.org/2000/svg" width="20" height="20" viewBox="0 0 20 20">
    <g fill="none" fill-rule="evenodd">
        <g fill="#7D88CA">
            <g>
                <g>
                    <g>
                        <path d="M15 9c.513 0 .936.386.993.883L16 10v3.333c0 1.416-1.104 2.575-2.498 2.662l-.169.005H1.667C.25 16-.908 14.896-.995 13.502L-1 13.333V10c0-.552.448-1 1-1 .513 0 .936.386.993.883L1 10v3.333c0 .335.247.612.568.66l.099.007h11.666c.335 0 .612-.247.66-.568l.007-.099V10c0-.552.448-1 1-1zM7.5-1h.02c.023 0 .046.002.07.004L7.5-1c.05 0 .1.004.149.011l.052.01c.022.004.043.009.065.015l.046.014.06.021.051.023.061.03.037.022c.025.016.05.032.074.05l.018.014c.007.005.01.007.012.01l.082.073 4.167 4.167c.39.39.39 1.023 0 1.414-.36.36-.928.388-1.32.083l-.094-.083L8.5 2.415V10c0 .552-.448 1-1 1-.513 0-.936-.386-.993-.883L6.5 10V2.413l-2.46 2.46c-.36.361-.927.389-1.32.084l-.094-.083c-.36-.36-.388-.928-.083-1.32l.083-.094L6.793-.707l.082-.073.008-.007-.09.08c.035-.036.073-.068.112-.097.024-.018.049-.034.074-.05l.037-.021c.02-.011.04-.022.06-.031L7.13-.93l.06-.021.045-.014.065-.016.053-.009.058-.007L7.482-1H7.5z" transform="translate(-986 -1006) translate(248 815) translate(738 191) translate(2.5 2.5)"/>
                    </g>
                </g>
            </g>
        </g>
    </g>
</svg>
