<svg xmlns="http://www.w3.org/2000/svg" width="12" height="12" viewBox="0 0 12 12">
    <g fill="none" fill-rule="evenodd">
        <g fill="#7D88CA">
            <g>
                <path d="M6 6.192c2.764 0 5.004 2.24 5.004 5.004 0 .331-.269.6-.6.6-.331 0-.6-.269-.6-.6 0-.365-.051-.718-.147-1.052-.703.415-1.615.345-2.267-.231-.14-.134-.255-.277-.346-.429-.389-.648-.296-1.315.077-1.924-.354-.11-.73-.168-1.121-.168-.802 0-1.547.248-2.16.673.04.01.078.022.116.035.815.265 1.37.615 1.549 1.194.234.75-.096 1.317-.774 1.888l-.415.336-.004.022c-.033.127-.108.244-.219.327l-.058.039c-.286.167-.654.071-.82-.215-.247-.42-.08-.721.253-1.025l.138-.116.352-.286c.345-.29.447-.466.4-.613-.005-.017-.057-.074-.174-.148-.147-.092-.352-.182-.599-.262-.229-.074-.479-.137-.73-.186-.415.609-.659 1.347-.659 2.141 0 .331-.269.6-.6.6-.331 0-.6-.269-.6-.6 0-1.167.4-2.241 1.07-3.093.031-.057.073-.108.121-.151.92-1.076 2.286-1.76 3.813-1.76zm2.206 1.904l.018-.028c-.227.313-.284.576-.151.798.035.058.084.119.13.164.264.233.652.24.922.027l.013-.011c-.253-.369-.569-.69-.932-.95zM7.494 0l.097.008c.731.12 1.268.751 1.268 1.492 0 .74-.537 1.372-1.268 1.492-.15.025-.262.155-.262.308s.111.283.262.308c.327.053.549.362.495.689-.053.327-.362.549-.689.495-.731-.12-1.268-.751-1.268-1.492 0-.74.537-1.372 1.268-1.492.15-.025.262-.155.262-.308 0-.134-.085-.25-.207-.294l-.032-.008-.038-.002c-.275-.032-.494-.25-.526-.526L6.852.6c0-.308.232-.561.53-.596L7.452 0h.042zM4.518 0l.097.008c.731.12 1.268.751 1.268 1.492 0 .74-.537 1.372-1.268 1.492-.15.025-.262.155-.262.308s.111.283.262.308c.327.053.549.362.495.689-.053.327-.362.549-.689.495-.731-.12-1.268-.751-1.268-1.492 0-.74.537-1.372 1.268-1.492.15-.025.262-.155.262-.308 0-.134-.085-.25-.207-.294l-.032-.008-.038-.002c-.275-.032-.494-.25-.526-.526L3.876.6c0-.308.232-.561.53-.596L4.476 0h.042z" transform="translate(-972 -959) translate(972 959)"/>
            </g>
        </g>
    </g>
</svg>
