<svg width="20" height="20" xmlns="http://www.w3.org/2000/svg">
    <path d="M8.756 1.402A2.487 2.487 0 0 1 11.24 1.4l5.448 3.113c.256.148.48.338.664.558l.105.135a.935.935 0 0 1 .22.365c.165.335.255.709.255 1.096v6.223a2.49 2.49 0 0 1-1.248 2.155l-5.44 3.109c-.26.15-.538.248-.823.297a.938.938 0 0 1-.845 0 2.438 2.438 0 0 1-.818-.295l-5.448-3.113a2.49 2.49 0 0 1-1.244-2.154V6.666c0-.388.09-.763.257-1.1a.892.892 0 0 1 .218-.36l.105-.135c.184-.22.408-.41.664-.558zM3.933 7.354v5.534a.62.62 0 0 0 .308.536l4.826 2.758v-5.858l-5.134-2.97zm12.134-.001-5.134 2.97v5.859l4.823-2.756a.622.622 0 0 0 .303-.444l.008-.093V7.353zM10.31 3.018a.624.624 0 0 0-.626.002L4.898 5.755 10 8.707l5.1-2.952z" fill="#7D88CA" fill-rule="evenodd"/>
</svg>
