<svg xmlns="http://www.w3.org/2000/svg" width="12" height="12" viewBox="0 0 12 12">
    <g fill="none" fill-rule="evenodd">
        <g fill="#1B2668">
            <g>
                <g>
                    <g>
                        <g>
                            <path d="M4.053.241C4.515-.026 5.085-.026 5.545.24l3.268 1.868c.185.106.342.25.463.416.031.033.06.07.083.11.02.035.035.07.047.106.1.202.154.427.154.66v3.734c0 .533-.285 1.025-.749 1.293l-3.264 1.865c-.139.08-.287.136-.44.168l-.05.008c-.077.04-.164.063-.257.063-.092 0-.18-.023-.256-.062-.17-.028-.335-.087-.489-.175L.787 8.426C.325 8.159.04 7.666.04 7.133V3.4c0-.232.054-.456.153-.657.012-.037.028-.073.048-.108.024-.041.053-.078.085-.111.12-.166.276-.309.46-.415zM1.16 3.811l.001 3.322c0 .133.071.256.185.321L4.24 9.11V5.595L1.159 3.812zm7.281 0L5.36 5.595v3.514l2.893-1.652c.093-.054.157-.143.179-.245l.008-.078V3.812zm-3.453-2.6c-.116-.067-.258-.067-.376.001L1.738 2.854 4.8 4.624l3.061-1.77z" transform="translate(-344 -866) translate(248 815) translate(40 47) translate(56 4) translate(1.2 .6)"/>
                        </g>
                    </g>
                </g>
            </g>
        </g>
    </g>
</svg>
